<svg width="286.2" height="29.121" viewBox="0 0 286.2 29.121" xmlns="http://www.w3.org/2000/svg"><g id="svgGroup" stroke-linecap="round" fill-rule="evenodd" font-size="9pt" stroke="#f85c70" stroke-width="0.25mm" fill="#f85c70" style="stroke:#f85c70;stroke-width:0.25mm;fill:#f85c70"><path d="M 138.32 10.08 L 138.32 8.64 Q 138.32 7.28 137.78 6.24 Q 137.24 5.2 136.32 4.52 A 6.652 6.652 0 0 0 134.649 3.63 A 7.801 7.801 0 0 0 134.2 3.48 Q 133 3.12 131.68 3.12 A 8.039 8.039 0 0 0 129.841 3.326 A 7.352 7.352 0 0 0 129.48 3.42 A 6.675 6.675 0 0 0 128.099 3.986 A 5.931 5.931 0 0 0 127.62 4.28 Q 126.8 4.84 126.32 5.66 Q 125.84 6.48 125.84 7.56 L 125.84 7.8 A 4.683 4.683 0 0 0 125.929 8.734 A 3.392 3.392 0 0 0 126.32 9.78 A 3.784 3.784 0 0 0 127.173 10.774 A 4.89 4.89 0 0 0 127.74 11.18 A 7.103 7.103 0 0 0 128.686 11.665 Q 129.157 11.866 129.706 12.033 A 12.699 12.699 0 0 0 130.08 12.14 A 22.951 22.951 0 0 0 131.397 12.454 Q 132.076 12.596 132.841 12.72 A 40.46 40.46 0 0 0 133.36 12.8 Q 137.76 13.48 139.84 15.38 A 6.284 6.284 0 0 1 141.853 19.372 A 8.862 8.862 0 0 1 141.92 20.48 L 141.92 20.96 A 9.103 9.103 0 0 1 141.678 23.093 A 7.855 7.855 0 0 1 141.3 24.26 Q 140.68 25.76 139.46 26.84 Q 138.24 27.92 136.44 28.52 A 11.226 11.226 0 0 1 134.435 28.98 Q 133.486 29.112 132.422 29.12 A 18.363 18.363 0 0 1 132.28 29.12 A 15.714 15.714 0 0 1 129.904 28.949 A 11.625 11.625 0 0 1 127.54 28.34 A 10.451 10.451 0 0 1 125.438 27.273 A 8.729 8.729 0 0 1 124.1 26.18 Q 122.72 24.8 122 22.94 A 10.784 10.784 0 0 1 121.314 19.827 A 12.803 12.803 0 0 1 121.28 18.88 L 121.28 17.68 L 124.64 17.68 L 124.64 18.64 A 10.653 10.653 0 0 0 124.837 20.761 Q 125.271 22.895 126.66 24.16 Q 128.497 25.834 131.642 25.985 A 13.276 13.276 0 0 0 132.28 26 A 11.249 11.249 0 0 0 134.038 25.872 Q 135.881 25.58 136.98 24.62 A 4.538 4.538 0 0 0 138.548 21.346 A 6.261 6.261 0 0 0 138.56 20.96 L 138.56 20.72 A 4.745 4.745 0 0 0 138.351 19.273 A 3.681 3.681 0 0 0 136.94 17.36 A 6.361 6.361 0 0 0 135.73 16.698 Q 134.183 16.038 131.68 15.68 A 22.545 22.545 0 0 1 129.546 15.298 A 17.338 17.338 0 0 1 127.86 14.82 A 11.057 11.057 0 0 1 126.217 14.115 A 8.62 8.62 0 0 1 124.96 13.3 Q 123.76 12.36 123.12 11.04 Q 122.48 9.72 122.48 7.92 L 122.48 7.44 Q 122.48 5.8 123.16 4.44 Q 123.84 3.08 125.06 2.08 Q 126.28 1.08 127.98 0.54 Q 129.68 0 131.72 0 Q 134.08 0 135.94 0.68 A 10.736 10.736 0 0 1 137.753 1.533 A 8.626 8.626 0 0 1 139.08 2.5 Q 140.36 3.64 141.02 5.18 Q 141.68 6.72 141.68 8.4 L 141.68 10.08 L 138.32 10.08 Z M 66.44 22.72 L 66.44 22.96 A 6.128 6.128 0 0 1 66.262 24.466 A 5.136 5.136 0 0 1 65.86 25.54 Q 65.28 26.68 64.26 27.48 A 6.576 6.576 0 0 1 62.813 28.332 A 8.465 8.465 0 0 1 61.78 28.7 A 10.809 10.809 0 0 1 59.656 29.079 A 13.141 13.141 0 0 1 58.6 29.12 A 14.597 14.597 0 0 1 56.824 29.018 Q 55.606 28.868 54.62 28.5 Q 52.96 27.88 51.86 26.86 A 6.917 6.917 0 0 1 50.388 24.94 A 6.57 6.57 0 0 1 50.2 24.54 A 7.925 7.925 0 0 1 49.608 22.42 A 7.311 7.311 0 0 1 49.56 21.92 L 52.52 21.2 Q 52.72 23.48 54.28 24.86 Q 55.822 26.224 58.379 26.24 A 9.723 9.723 0 0 0 58.44 26.24 A 9.211 9.211 0 0 0 59.851 26.139 Q 61.101 25.945 61.98 25.38 A 3.056 3.056 0 0 0 62.819 24.606 Q 63.281 23.968 63.317 23.108 A 3.519 3.519 0 0 0 63.32 22.96 A 3.331 3.331 0 0 0 63.191 22.004 A 2.371 2.371 0 0 0 62 20.56 A 5.169 5.169 0 0 0 61.072 20.179 Q 59.801 19.781 57.72 19.64 Q 54.28 19.4 52.44 18.04 Q 50.6 16.68 50.6 14.08 L 50.6 13.84 Q 50.6 12.44 51.2 11.38 Q 51.8 10.32 52.82 9.6 A 7.4 7.4 0 0 1 54.959 8.568 A 8.39 8.39 0 0 1 55.12 8.52 Q 56.4 8.16 57.8 8.16 A 12.073 12.073 0 0 1 59.478 8.271 Q 60.371 8.397 61.138 8.664 A 7.451 7.451 0 0 1 61.24 8.7 Q 62.72 9.24 63.72 10.1 A 6.16 6.16 0 0 1 65.08 11.737 A 5.837 5.837 0 0 1 65.26 12.08 Q 65.8 13.2 65.96 14.32 L 63 15.04 A 4.97 4.97 0 0 0 62.639 13.594 A 3.974 3.974 0 0 0 61.46 12.04 A 4.699 4.699 0 0 0 59.58 11.139 Q 58.838 10.96 57.96 10.96 Q 57.12 10.96 56.34 11.14 A 5.169 5.169 0 0 0 55.498 11.409 A 4.229 4.229 0 0 0 54.96 11.68 A 3.071 3.071 0 0 0 54.235 12.276 A 2.803 2.803 0 0 0 54 12.58 A 2.147 2.147 0 0 0 53.652 13.587 A 2.7 2.7 0 0 0 53.64 13.84 Q 53.64 15.179 54.694 15.929 A 3.22 3.22 0 0 0 54.86 16.04 Q 55.789 16.619 57.89 16.896 A 25.216 25.216 0 0 0 59.32 17.04 A 16.021 16.021 0 0 1 61.333 17.323 Q 63.369 17.752 64.62 18.7 A 4.478 4.478 0 0 1 66.371 21.737 A 6.693 6.693 0 0 1 66.44 22.72 Z M 39.2 19.04 L 39.2 8.72 L 42.32 8.72 L 42.32 28.56 L 39.2 28.56 L 39.2 24.96 L 38.72 24.96 A 8.83 8.83 0 0 1 37.45 26.867 A 7.492 7.492 0 0 1 36.2 28 Q 34.68 29.091 32.364 29.12 A 10.148 10.148 0 0 1 32.24 29.12 A 8.703 8.703 0 0 1 30.245 28.899 A 7.539 7.539 0 0 1 29.22 28.58 Q 27.84 28.04 26.86 26.96 A 6.943 6.943 0 0 1 25.763 25.319 A 8.822 8.822 0 0 1 25.34 24.28 Q 24.834 22.78 24.802 20.823 A 16.269 16.269 0 0 1 24.8 20.56 L 24.8 8.72 L 27.92 8.72 L 27.92 20.16 A 12.076 12.076 0 0 0 28.021 21.782 Q 28.273 23.634 29.151 24.664 A 3.604 3.604 0 0 0 29.2 24.72 Q 30.317 25.977 32.469 26.137 A 8.775 8.775 0 0 0 33.12 26.16 A 6.682 6.682 0 0 0 35.078 25.888 A 5.161 5.161 0 0 0 37.58 24.22 Q 39.115 22.383 39.195 19.379 A 12.556 12.556 0 0 0 39.2 19.04 Z M 17.28 3.68 L 17.28 20.16 A 14.27 14.27 0 0 1 17.071 22.684 Q 16.611 25.239 15.14 26.82 A 6.85 6.85 0 0 1 11.927 28.733 Q 10.824 29.048 9.502 29.107 A 13.968 13.968 0 0 1 8.88 29.12 A 11.907 11.907 0 0 1 6.171 28.83 Q 3.993 28.321 2.489 26.923 A 7.626 7.626 0 0 1 2.38 26.82 Q 0 24.52 0 20.16 L 0 18 L 3.36 18 L 3.36 20.16 A 8.326 8.326 0 0 0 3.543 21.959 Q 3.817 23.198 4.501 24.124 A 5.141 5.141 0 0 0 4.72 24.4 A 4.276 4.276 0 0 0 6.774 25.716 Q 7.699 26 8.88 26 A 7.667 7.667 0 0 0 10.286 25.881 Q 11.056 25.737 11.645 25.419 A 3.297 3.297 0 0 0 12.8 24.4 Q 13.76 23.029 13.897 20.893 A 11.442 11.442 0 0 0 13.92 20.16 L 13.92 3.68 L 11.04 3.68 L 11.04 0.56 L 19.68 0.56 L 19.68 3.68 L 17.28 3.68 Z M 171.92 28.56 L 171.92 25.68 L 179.12 25.68 L 179.12 3.44 L 172.16 3.44 L 172.16 0.56 L 182.24 0.56 L 182.24 25.68 L 189.44 25.68 L 189.44 28.56 L 171.92 28.56 Z M 196.4 28.56 L 196.4 25.68 L 203.6 25.68 L 203.6 3.44 L 196.64 3.44 L 196.64 0.56 L 206.72 0.56 L 206.72 25.68 L 213.92 25.68 L 213.92 28.56 L 196.4 28.56 Z M 73.32 11.6 L 73.32 8.72 L 79.56 8.72 L 79.56 0.56 L 82.68 0.56 L 82.68 8.72 L 90.36 8.72 L 90.36 11.6 L 82.68 11.6 L 82.68 24.48 Q 82.68 25.68 83.76 25.68 L 89.4 25.68 L 89.4 28.56 L 82.64 28.56 A 3.426 3.426 0 0 1 81.581 28.404 A 2.812 2.812 0 0 1 80.42 27.68 A 2.989 2.989 0 0 1 79.575 25.793 A 4.019 4.019 0 0 1 79.56 25.44 L 79.56 11.6 L 73.32 11.6 Z M 269.16 11.6 L 269.16 8.72 L 275.4 8.72 L 275.4 0.56 L 278.52 0.56 L 278.52 8.72 L 286.2 8.72 L 286.2 11.6 L 278.52 11.6 L 278.52 24.48 Q 278.52 25.68 279.6 25.68 L 285.24 25.68 L 285.24 28.56 L 278.48 28.56 A 3.426 3.426 0 0 1 277.421 28.404 A 2.812 2.812 0 0 1 276.26 27.68 A 2.989 2.989 0 0 1 275.415 25.793 A 4.019 4.019 0 0 1 275.4 25.44 L 275.4 11.6 L 269.16 11.6 Z M 165.72 19.6 L 149.72 19.6 A 8.72 8.72 0 0 0 150.058 21.736 A 6.357 6.357 0 0 0 151.56 24.36 A 5.638 5.638 0 0 0 154.444 25.957 A 8.524 8.524 0 0 0 156.36 26.16 Q 157.612 26.16 158.577 25.904 A 5.967 5.967 0 0 0 158.8 25.84 A 6.412 6.412 0 0 0 159.817 25.434 A 5.037 5.037 0 0 0 160.58 24.96 A 4.885 4.885 0 0 0 161.622 23.898 A 4.564 4.564 0 0 0 161.78 23.66 Q 162.24 22.92 162.52 22.08 L 165.48 22.88 Q 164.64 25.64 162.38 27.38 A 7.837 7.837 0 0 1 159.677 28.699 Q 158.17 29.12 156.28 29.12 Q 154.16 29.12 152.38 28.38 Q 150.6 27.64 149.32 26.28 A 9.608 9.608 0 0 1 147.509 23.502 A 11.142 11.142 0 0 1 147.32 23.04 A 10.912 10.912 0 0 1 146.663 20.199 A 13.393 13.393 0 0 1 146.6 18.88 L 146.6 17.92 Q 146.6 15.84 147.34 14.04 Q 148.08 12.24 149.4 10.94 Q 150.72 9.64 152.5 8.9 A 9.798 9.798 0 0 1 155.845 8.172 A 11.39 11.39 0 0 1 156.36 8.16 A 11.154 11.154 0 0 1 158.369 8.333 A 8.108 8.108 0 0 1 160.58 9.06 A 10.338 10.338 0 0 1 162.369 10.197 A 8.456 8.456 0 0 1 163.5 11.28 A 8.823 8.823 0 0 1 165.092 13.918 A 8.429 8.429 0 0 1 165.18 14.16 Q 165.701 15.666 165.719 16.948 A 6.514 6.514 0 0 1 165.72 17.04 L 165.72 19.6 Z M 245.84 28.56 L 245.84 25.68 L 252.8 25.68 L 252.8 11.6 L 246.56 11.6 L 246.56 8.72 L 255.92 8.72 L 255.92 25.68 L 262.4 25.68 L 262.4 28.56 L 245.84 28.56 Z M 149.8 16.72 L 162.6 16.72 A 6.045 6.045 0 0 0 162.297 15.144 A 5.349 5.349 0 0 0 161.98 14.4 Q 161.44 13.36 160.58 12.64 Q 159.72 11.92 158.62 11.52 Q 157.52 11.12 156.36 11.12 A 7.317 7.317 0 0 0 154.555 11.337 A 6.554 6.554 0 0 0 153.9 11.54 A 6.295 6.295 0 0 0 152.067 12.578 A 5.977 5.977 0 0 0 151.9 12.72 Q 151.04 13.48 150.5 14.5 Q 149.96 15.52 149.8 16.72 Z M 101.24 19.6 L 101.24 16.72 L 113.24 16.72 L 113.24 19.6 L 101.24 19.6 Z M 223.64 19.6 L 223.64 16.72 L 235.64 16.72 L 235.64 19.6 L 223.64 19.6 Z M 252.315 0.846 A 2.695 2.695 0 0 0 251.52 2.8 A 3.256 3.256 0 0 0 251.52 2.837 A 2.695 2.695 0 0 0 252.34 4.78 A 3.257 3.257 0 0 0 252.366 4.806 A 2.695 2.695 0 0 0 254.32 5.6 A 3.256 3.256 0 0 0 254.356 5.6 A 2.695 2.695 0 0 0 256.3 4.78 A 3.257 3.257 0 0 0 256.325 4.755 A 2.695 2.695 0 0 0 257.12 2.8 A 3.256 3.256 0 0 0 257.12 2.764 A 2.695 2.695 0 0 0 256.3 0.82 A 3.257 3.257 0 0 0 256.274 0.795 A 2.695 2.695 0 0 0 254.32 0 A 3.256 3.256 0 0 0 254.284 0.001 A 2.695 2.695 0 0 0 252.34 0.82 A 3.257 3.257 0 0 0 252.315 0.846 Z" vector-effect="non-scaling-stroke"/></g></svg>