<svg width="238.3" height="72.401" viewBox="0 0 238.3 72.401" xmlns="http://www.w3.org/2000/svg"><g id="svgGroup" stroke-linecap="round" fill-rule="evenodd" font-size="9pt" stroke="#f85c70" stroke-width="0.25mm" fill="#f85c70" style="stroke:#f85c70;stroke-width:0.25mm;fill:#f85c70"><path d="M 106 65.3 L 110.8 57.3 Q 114.4 60.3 118.9 62.2 A 23.348 23.348 0 0 0 124.27 63.71 A 32.118 32.118 0 0 0 129.4 64.1 A 27.981 27.981 0 0 0 133.947 63.754 Q 136.37 63.354 138.331 62.494 A 13.701 13.701 0 0 0 140.8 61.1 Q 144.848 58.209 144.995 53.366 A 12.116 12.116 0 0 0 145 53 A 11.94 11.94 0 0 0 144.663 50.107 A 9.816 9.816 0 0 0 143.8 47.85 A 8.097 8.097 0 0 0 142.6 46.194 Q 141.33 44.813 139.184 43.471 A 25.81 25.81 0 0 0 139.15 43.45 Q 136.034 41.508 130.265 39.28 A 118.584 118.584 0 0 0 129 38.8 Q 121.8 36 117.5 33.15 A 21.931 21.931 0 0 1 114.411 30.703 Q 112.694 29.053 111.638 27.188 A 13.303 13.303 0 0 1 111.35 26.65 Q 109.5 23 109.5 18 Q 109.5 13 112.25 8.95 Q 115 4.9 120.35 2.45 A 25.558 25.558 0 0 1 126.25 0.615 Q 129.493 0 133.3 0 Q 139.5 0 144.45 1.25 Q 149.4 2.5 154.1 4.8 L 150.6 12.9 A 31.496 31.496 0 0 0 146.474 10.881 A 41.686 41.686 0 0 0 142.65 9.55 Q 138.1 8.2 133.1 8.2 A 27.187 27.187 0 0 0 129.07 8.48 Q 126.938 8.8 125.2 9.487 A 12.616 12.616 0 0 0 122.7 10.8 A 9.902 9.902 0 0 0 120.537 12.765 A 7.359 7.359 0 0 0 118.9 17.5 A 10.464 10.464 0 0 0 119.192 20.022 A 8.562 8.562 0 0 0 120 22.1 Q 121.056 24.019 124.091 25.847 A 23.503 23.503 0 0 0 124.35 26 A 33.003 33.003 0 0 0 126.566 27.172 Q 128.835 28.275 132.046 29.523 A 130.016 130.016 0 0 0 134.1 30.3 A 81.228 81.228 0 0 1 139.078 32.329 Q 143.464 34.3 146.45 36.4 A 26.044 26.044 0 0 1 149.49 38.878 Q 151.713 41.006 152.9 43.35 A 17.579 17.579 0 0 1 154.641 49.213 A 22.155 22.155 0 0 1 154.8 51.9 A 21.71 21.71 0 0 1 154.133 57.401 A 17.105 17.105 0 0 1 151.55 63 Q 148.3 67.6 142.55 70 A 30.521 30.521 0 0 1 135.14 72.004 A 40.027 40.027 0 0 1 129.4 72.4 Q 122.1 72.4 116.1 70.45 A 38.206 38.206 0 0 1 110.733 68.268 A 28.433 28.433 0 0 1 106 65.3 Z M 0 66.6 L 4.6 59.3 A 16.858 16.858 0 0 0 8.67 62.416 A 19.43 19.43 0 0 0 9.4 62.8 A 13.114 13.114 0 0 0 13.275 64.06 A 11.941 11.941 0 0 0 15.1 64.2 A 10.741 10.741 0 0 0 18.607 63.653 A 8.936 8.936 0 0 0 22.7 60.75 Q 25.5 57.3 25.5 49.1 L 25.5 1.2 L 35 1.2 L 35 48.1 A 47.346 47.346 0 0 1 34.573 54.698 Q 33.481 62.431 29.6 66.6 A 17.93 17.93 0 0 1 17.808 72.286 A 24.68 24.68 0 0 1 15.4 72.4 A 23.443 23.443 0 0 1 7.322 71.017 A 22.405 22.405 0 0 1 6.75 70.8 A 22.827 22.827 0 0 1 2.828 68.818 A 18.183 18.183 0 0 1 0 66.6 Z M 238.3 71.2 L 228.8 71.2 L 228.8 1.2 L 238.3 1.2 L 238.3 71.2 Z M 90 41 L 56 41 L 56 32.8 L 90 32.8 L 90 41 Z M 206.8 41 L 172.8 41 L 172.8 32.8 L 206.8 32.8 L 206.8 41 Z" vector-effect="non-scaling-stroke"/></g></svg>